<svg width="128" height="128" viewBox="0 0 128 128" fill="none" xmlns="http://www.w3.org/2000/svg">
<path d="M94.744 33.256C94.1868 32.6984 93.5252 32.2561 92.797 31.9543C92.0688 31.6526 91.2882 31.4973 90.5 31.4973C89.7117 31.4973 88.9312 31.6526 88.203 31.9543C87.4748 32.2561 86.8132 32.6984 86.256 33.256L64 55.52L41.744 33.26C40.6184 32.1344 39.0918 31.5021 37.5 31.5021C35.9082 31.5021 34.3815 32.1344 33.256 33.26C32.1304 34.3856 31.498 35.9122 31.498 37.504C31.498 39.0958 32.1304 40.6224 33.256 41.748L55.52 64L33.26 86.256C32.7026 86.8133 32.2605 87.4749 31.9589 88.2031C31.6573 88.9313 31.502 89.7118 31.502 90.5C31.502 92.0918 32.1344 93.6184 33.26 94.744C34.3855 95.8696 35.9122 96.5019 37.504 96.5019C39.0958 96.5019 40.6224 95.8696 41.748 94.744L64 72.48L86.256 94.74C87.3815 95.8655 88.9082 96.4979 90.5 96.4979C92.0918 96.4979 93.6184 95.8655 94.744 94.74C95.8696 93.6144 96.5019 92.0878 96.5019 90.496C96.5019 88.9042 95.8696 87.3776 94.744 86.252L72.48 64L94.74 41.744C95.2975 41.1868 95.7398 40.5252 96.0416 39.797C96.3434 39.0688 96.4987 38.2882 96.4987 37.5C96.4987 36.7117 96.3434 35.9312 96.0416 35.203C95.7398 34.4748 95.2975 33.8132 94.74 33.256H94.744Z" fill="black"/>
<path d="M24 4C21.3736 4 18.7728 4.51732 16.3463 5.52241C13.9198 6.5275 11.715 8.00069 9.85786 9.85786C6.10714 13.6086 4 18.6957 4 24V104C4 109.304 6.10714 114.391 9.85786 118.142C11.715 119.999 13.9198 121.472 16.3463 122.478C18.7728 123.483 21.3736 124 24 124H104C109.304 124 114.391 121.893 118.142 118.142C121.893 114.391 124 109.304 124 104V24C124 21.3736 123.483 18.7728 122.478 16.3463C121.472 13.9198 119.999 11.715 118.142 9.85786C116.285 8.00069 114.08 6.5275 111.654 5.52241C109.227 4.51732 106.626 4 104 4H24ZM12 24C12 20.8174 13.2643 17.7652 15.5147 15.5147C17.7652 13.2643 20.8174 12 24 12H104C107.183 12 110.235 13.2643 112.485 15.5147C114.736 17.7652 116 20.8174 116 24V104C116 107.183 114.736 110.235 112.485 112.485C110.235 114.736 107.183 116 104 116H24C20.8174 116 17.7652 114.736 15.5147 112.485C13.2643 110.235 12 107.183 12 104V24Z" fill="black"/>
</svg>
