<svg width="128" height="128" viewBox="0 0 128 128" fill="none" xmlns="http://www.w3.org/2000/svg">
<path d="M27.658 15.126C30.06 15.066 33.148 15.956 34.928 16.718C37.124 17.658 39.036 14.466 36.822 13.516C32.446 11.64 27.574 10.7 22.896 12.03C18.422 13.302 17.814 18.722 21.564 21.15C25.08 23.426 29.682 21.554 33.29 23.332C34.72 24.038 33.72 25.374 32.692 25.776C31.604 26.2 30.388 26.234 29.236 26.242C26.852 26.258 23.862 25.878 21.82 24.616C19.764 23.342 17.882 26.552 19.926 27.816C23.526 30.042 29.03 30.436 33.12 29.518C37.216 28.602 39.488 23.756 36.018 20.72C32.984 18.062 28.252 19.25 24.624 18.394C23.576 18.148 21.978 17.326 23.114 16.03C24.02 14.992 26.446 15.154 27.658 15.126M95.876 11.414C95.3829 11.416 94.9102 11.6113 94.5594 11.958C94.2087 12.3046 94.0078 12.7749 94 13.268V28.094C94 30.484 97.75 30.484 97.75 28.094V22.56C102.122 22.634 108.504 22.582 108.946 17.59C109.57 10.516 100.606 11.414 95.876 11.414M105.016 17.708C103.834 19.186 100.302 19.044 97.75 18.906V15.108C101.02 15.112 106.876 15.37 105.016 17.708M60.25 13.268V18.826H49V13.268C49 10.878 45.25 10.878 45.25 13.268V28.094C45.25 30.484 49 30.484 49 28.094V22.534H60.25V28.094C60.25 30.484 64 30.484 64 28.094V13.268C64 10.876 60.25 10.876 60.25 13.268M79 11.414C73.83 11.414 69.624 15.57 69.624 20.68C69.624 25.792 73.83 29.948 79 29.948C84.17 29.948 88.376 25.792 88.376 20.68C88.376 15.57 84.17 11.414 79 11.414M79 26.24C75.898 26.24 73.374 23.746 73.374 20.68C73.374 17.616 75.898 15.12 79 15.12C82.102 15.12 84.626 17.616 84.626 20.68C84.626 23.746 82.102 26.24 79 26.24Z" fill="#CE8B3C"/>
<path d="M13.376 22.534C14.4121 22.534 15.252 21.7039 15.252 20.68C15.252 19.6561 14.4121 18.826 13.376 18.826C12.3399 18.826 11.5 19.6561 11.5 20.68C11.5 21.7039 12.3399 22.534 13.376 22.534Z" fill="#CE8B3C"/>
<path d="M114.626 22.534C115.662 22.534 116.502 21.7039 116.502 20.68C116.502 19.6561 115.662 18.826 114.626 18.826C113.59 18.826 112.75 19.6561 112.75 20.68C112.75 21.7039 113.59 22.534 114.626 22.534Z" fill="#CE8B3C"/>
<path d="M33.054 74.93C30.5332 74.9329 28.0805 75.7481 26.0595 77.2547C24.0384 78.7613 22.5567 80.879 21.834 83.294H44.278C43.5542 80.8789 42.0717 78.7612 40.05 77.2547C38.0284 75.7482 35.5752 74.933 33.054 74.93" fill="#CE8B3C"/>
<path d="M120.25 4H7.75C5.688 4 4 5.668 4 7.708V54.044C4 56.78 5.548 59.144 7.782 60.428V116.836H6V124H122V116.834H120.218V60.426C122.452 59.14 124 56.778 124 54.042V7.708C124 5.668 122.312 4 120.25 4ZM6.812 54.042V37.36H16.188V54.042C16.188 56.596 14.086 58.674 11.5 58.674C8.914 58.674 6.812 56.596 6.812 54.042ZM44.766 86.638V116.834H21.346V86.638H18C18.0457 82.6758 19.6517 78.8913 22.4697 76.1056C25.2878 73.3198 29.0905 71.7575 33.053 71.7575C37.0155 71.7575 40.8182 73.3198 43.6363 76.1056C46.4543 78.8913 48.0603 82.6758 48.106 86.638H44.766M106.654 105.04H56.472V71.586H106.654V105.04ZM116.5 62.92H11.5V61.454C15.642 61.454 19 58.136 19 54.042C19 58.136 22.358 61.454 26.5 61.454C30.642 61.454 34 58.134 34 54.042C34 58.136 37.358 61.454 41.5 61.454C45.642 61.454 49 58.136 49 54.042C49 58.136 52.358 61.454 56.5 61.454C60.642 61.454 64 58.134 64 54.042C64 58.136 67.358 61.454 71.5 61.454C75.642 61.454 79 58.136 79 54.042C79 58.136 82.358 61.454 86.5 61.454C90.642 61.454 94 58.134 94 54.042C94 58.136 97.358 61.454 101.5 61.454C105.642 61.454 109 58.136 109 54.042C109 58.136 112.358 61.454 116.5 61.454V62.92M36.812 54.042V37.36H46.188V54.042C46.188 56.596 44.086 58.674 41.5 58.674C38.914 58.674 36.812 56.596 36.812 54.042M66.812 54.042V37.36H76.188V54.042C76.188 56.596 74.086 58.674 71.5 58.674C68.914 58.674 66.812 56.596 66.812 54.042ZM96.812 54.042V37.36H106.188V54.042C106.188 56.596 104.086 58.674 101.5 58.674C98.914 58.674 96.812 56.596 96.812 54.042ZM120.25 31.8C120.245 32.2941 120.045 32.7662 119.694 33.1135C119.343 33.4608 118.868 33.6551 118.374 33.654H9.626C9.13193 33.6551 8.65746 33.4608 8.30604 33.1135C7.95462 32.7662 7.75475 32.2941 7.75 31.8V9.56C7.75 8.538 8.594 7.706 9.626 7.706H118.376C119.408 7.706 120.252 8.538 120.252 9.56V31.8H120.25Z" fill="#CE8B3C"/>
<path d="M38.0719 95.002C37.1519 95.002 36.3999 95.988 36.3999 97.2V100.5C36.3999 101.708 37.0039 103.292 37.7379 104.018L38.4039 104.674C39.1419 105.402 39.7459 105.008 39.7459 103.794V97.2C39.7459 95.988 38.9939 95.002 38.0719 95.002" fill="#CE8B3C"/>
</svg>
