<svg width="128" height="128" viewBox="0 0 128 128" fill="none" xmlns="http://www.w3.org/2000/svg">
<path d="M28.68 87.028L91.76 92L95.928 76H98.072C103.56 76 108.048 81.36 108.048 87.54V88C108.048 94.432 103.236 100 97.512 100H12C9.812 100 8 101.528 8 103.824C8 106.12 9.788 108 11.976 108H97.676C107.772 108 116 99.024 116 88V87.54C116 76.768 107.972 68 98.072 68H98.012L98.028 67.952C98.4624 67.8608 98.8535 67.6262 99.1386 67.286C99.4237 66.9458 99.5862 66.5196 99.6 66.076V65.924C99.5993 65.6501 99.5389 65.3797 99.4228 65.1317C99.3067 64.8837 99.1378 64.664 98.928 64.488L109.48 24H20.8C13.76 24 8 29.728 8 37.012L10.08 70.992C10.68 81.06 20.16 86.352 28.68 87.028V87.028ZM86.464 64H80V48H90.42L86.464 64ZM91.408 44H80V32.028L87.8 32.036C91.16 32.036 93.6 35.14 92.8 38.364L91.408 44ZM76 32.024V44H58.48V32L76 32.024ZM54.48 31.996V44H36.08V31.976L54.48 31.996V31.996ZM32.08 31.972V44H16.444L16 36.772C16 34.108 18.16 31.956 20.84 31.956L32.08 31.972V31.972ZM16.692 48H32.08V64H17.68L16.692 48ZM17.924 68H32.08V79.32L29.36 79.108C24 78.668 18.4 75.608 18.08 70.512L17.924 68ZM36.08 79.64V68H54.48V81.088L36.08 79.636V79.64ZM58.48 81.4V68H76V82.48C76 82.584 76.008 82.684 76.024 82.784L58.48 81.4V81.4ZM80 82.4V68H85.476L82.76 78.988C82.5827 79.7262 82.2429 80.4155 81.7654 81.0058C81.288 81.596 80.6848 82.0723 80 82.4V82.4ZM58.48 48H76V64H58.48V48V48ZM36.08 48H54.48V64H36.08V48Z" fill="#9B9B9B"/>
<path d="M91.212 95.88C88.968 95.356 87.572 93.128 88.12 90.98L107.656 15.072C108.208 12.924 110.54 11.588 112.784 12.112C115.032 12.64 116.432 14.872 115.88 17.02L96.344 92.92C95.792 95.108 93.504 96.404 91.216 95.88H91.212Z" fill="#BEBEBE"/>
<path d="M108 20H116C118.2 20 120 18.2 120 16C120 13.8 118.2 12 116 12H108C105.8 12 104 13.8 104 16C104 18.2 105.8 20 108 20ZM22 120C23.5913 120 25.1174 119.368 26.2426 118.243C27.3679 117.117 28 115.591 28 114C28 112.409 27.3679 110.883 26.2426 109.757C25.1174 108.632 23.5913 108 22 108C20.4087 108 18.8826 108.632 17.7574 109.757C16.6321 110.883 16 112.409 16 114C16 115.591 16.6321 117.117 17.7574 118.243C18.8826 119.368 20.4087 120 22 120V120ZM94 120C95.5913 120 97.1174 119.368 98.2426 118.243C99.3679 117.117 100 115.591 100 114C100 112.409 99.3679 110.883 98.2426 109.757C97.1174 108.632 95.5913 108 94 108C92.4087 108 90.8826 108.632 89.7574 109.757C88.6321 110.883 88 112.409 88 114C88 115.591 88.6321 117.117 89.7574 118.243C90.8826 119.368 92.4087 120 94 120Z" fill="black"/>
</svg>
