<svg width="128" height="128" viewBox="0 0 128 128" fill="none" xmlns="http://www.w3.org/2000/svg">
<g clip-path="url(#clip0_102_2)">
<path d="M48 113.778C52.9092 113.778 56.8889 109.798 56.8889 104.889C56.8889 99.9797 52.9092 96 48 96C43.0908 96 39.1111 99.9797 39.1111 104.889C39.1111 109.798 43.0908 113.778 48 113.778Z" fill="black"/>
<path d="M94.2223 113.778C99.1315 113.778 103.111 109.798 103.111 104.889C103.111 99.9797 99.1315 96 94.2223 96C89.3131 96 85.3334 99.9797 85.3334 104.889C85.3334 109.798 89.3131 113.778 94.2223 113.778Z" fill="black"/>
<path d="M117.689 22.72C117.358 22.2898 116.932 21.9411 116.445 21.7007C115.958 21.4603 115.423 21.3347 114.88 21.3334H32.7466L31.1466 16.2489C30.9709 15.703 30.6656 15.2077 30.257 14.8053C29.8484 14.4028 29.3485 14.1052 28.7999 13.9378L14.2222 9.45782C13.7739 9.32007 13.3029 9.27197 12.8361 9.31625C12.3693 9.36053 11.9157 9.49632 11.5014 9.71588C10.6645 10.1593 10.0381 10.917 9.75994 11.8223C9.48176 12.7275 9.57459 13.7062 10.018 14.5431C10.4614 15.3799 11.2191 16.0063 12.1244 16.2845L24.8888 20.1956L41.1733 71.6445L35.3777 76.4089L34.9155 76.8712C33.4823 78.5308 32.6702 80.6368 32.6183 82.829C32.5665 85.0212 33.2779 87.1634 34.6311 88.8889C35.6002 90.0675 36.8316 91.0028 38.2269 91.6202C39.6222 92.2376 41.1427 92.5199 42.6666 92.4445H102.009C102.952 92.4445 103.856 92.0699 104.523 91.4031C105.19 90.7363 105.564 89.8319 105.564 88.8889C105.564 87.9459 105.19 87.0416 104.523 86.3748C103.856 85.708 102.952 85.3334 102.009 85.3334H42.0977C41.6883 85.3194 41.2894 85.2001 40.9395 84.9869C40.5897 84.7737 40.3007 84.4739 40.1005 84.1165C39.9004 83.7591 39.7958 83.356 39.7968 82.9464C39.7979 82.5367 39.9046 82.1342 40.1066 81.7778L48.6755 74.6667H103.538C104.35 74.6904 105.146 74.4351 105.793 73.9435C106.44 73.4518 106.899 72.7534 107.093 71.9645L118.471 25.7423C118.579 25.2122 118.565 24.6644 118.429 24.1407C118.294 23.617 118.041 23.1311 117.689 22.72V22.72Z" fill="black"/>
</g>
<defs>
<clipPath id="clip0_102_2">
<rect width="128" height="128" fill="white"/>
</clipPath>
</defs>
</svg>
