<svg width="128" height="128" viewBox="0 0 128 128" fill="none" xmlns="http://www.w3.org/2000/svg">
<path d="M56.4544 71.2205L61.0599 68.5594L55.0874 63.5354L56.4544 71.2205Z" fill="black"/>
<path d="M113.354 63.9488C113.354 62.816 112.797 61.8201 111.95 61.1955L111.968 61.1648L100.033 54.2745L106.903 42.3756L106.88 42.3616C107.097 41.8712 107.195 41.3365 107.167 40.801C107.139 40.2655 106.985 39.7442 106.717 39.2793C106.448 38.8149 106.073 38.4206 105.623 38.1283C105.172 37.8361 104.659 37.6542 104.125 37.5974V37.5641H90.3425V23.8208H90.3143C90.2569 23.2876 90.0748 22.7754 89.7826 22.3257C89.4903 21.8761 89.0963 21.5016 88.6324 21.2326C88.1668 20.9644 87.6444 20.8101 87.1079 20.7823C86.5713 20.7545 86.0358 20.854 85.545 21.0726L85.5284 21.0432L73.3927 28.0499L66.6727 16.4096L66.6484 16.4236C66.332 15.9906 65.9181 15.6382 65.4402 15.395C64.9624 15.1517 64.4339 15.0244 63.8977 15.0233C62.7649 15.0233 61.7677 15.5801 61.1444 16.4275L61.1137 16.4096L54.2823 28.2419L42.5191 21.4502L42.505 21.4745C42.0146 21.2575 41.48 21.1592 40.9445 21.1874C40.409 21.2156 39.8876 21.3697 39.4228 21.6371C38.958 21.9062 38.5634 22.2812 38.2709 22.7316C37.9784 23.182 37.7964 23.6951 37.7396 24.2291H37.705V37.8918H24.1217V37.9187C23.5885 37.976 23.0763 38.1582 22.6266 38.4504C22.177 38.7426 21.8025 39.1367 21.5335 39.6006C21.266 40.0659 21.112 40.5877 21.084 41.1237C21.056 41.6597 21.1547 42.1947 21.3722 42.6854L21.3428 42.7033L28.0577 54.3347L16.0333 61.2774L16.0474 61.3017C15.6144 61.6181 15.262 62.032 15.0187 62.5098C14.7755 62.9877 14.6481 63.5162 14.6471 64.0524C14.6471 65.1852 15.2039 66.1824 16.0513 66.8057L16.0333 66.8364L27.9681 73.7267L21.0983 85.6256L21.1213 85.6384C20.9043 86.1288 20.806 86.6634 20.8342 87.1989C20.8625 87.7344 21.0165 88.2557 21.2839 88.7206C21.5532 89.185 21.9283 89.5794 22.3787 89.8716C22.8291 90.1638 23.342 90.3457 23.8759 90.4025V90.4371H37.6577V104.179H37.6858C37.8036 105.224 38.3885 106.202 39.3677 106.767C39.8334 107.035 40.3557 107.189 40.8923 107.217C41.4288 107.245 41.9642 107.146 42.4551 106.927L42.4717 106.957L54.6074 99.95L61.3274 111.59L61.3517 111.576C61.6681 112.009 62.082 112.362 62.5599 112.605C63.0377 112.848 63.5662 112.976 64.1025 112.977C65.2353 112.977 66.2324 112.42 66.8557 111.574L66.8852 111.59L73.7165 99.758L85.481 106.55L85.4951 106.525C85.9855 106.742 86.5201 106.841 87.0556 106.813C87.5912 106.784 88.1125 106.63 88.5773 106.363C89.0422 106.094 89.4369 105.719 89.7294 105.268C90.0219 104.818 90.2039 104.305 90.2605 103.771H90.2951V90.1094H103.88V90.0825C104.413 90.0252 104.925 89.843 105.375 89.5508C105.824 89.2586 106.199 88.8645 106.468 88.4006C106.735 87.9353 106.889 87.4135 106.917 86.8775C106.945 86.3415 106.847 85.8065 106.629 85.3158L106.659 85.2992L99.9437 73.6678L111.968 66.7251L111.954 66.7008C112.387 66.3841 112.739 65.97 112.983 65.4919C113.226 65.0138 113.353 64.4852 113.354 63.9488V63.9488ZM48.0474 83.4521C45.193 85.1008 42.6049 85.326 40.4045 84.7347L40.713 81.2825C42.3796 81.7651 44.5338 81.7625 46.569 80.5862C48.3188 79.5763 48.6913 78.327 48.1933 77.4656C46.7098 74.8979 39.2436 81.6 36.0346 76.0435C34.6164 73.5859 35.5649 70.3206 39.0426 68.3136C41.3889 66.958 43.7466 66.5433 45.9879 67.0489L45.5924 70.4064C43.7581 69.9916 41.8701 70.4012 40.3649 71.2691C39.0362 72.0371 38.6151 73.047 39.1271 73.934C40.4698 76.2585 48.0423 69.792 51.2244 75.3024C52.7847 78.0019 52.0129 81.1648 48.0474 83.4521V83.4521ZM65.8945 72.7948L63.5213 70.83L57.1892 74.4857L57.7025 77.5244L54.1377 79.5814L51.3025 61.5296L55.2436 59.255L69.4593 70.7379L65.8945 72.7948V72.7948ZM70.6983 70.0224L62.1722 55.2537L65.3389 53.4246L72.2676 65.4246L78.5114 61.8201L80.1101 64.5888L70.6983 70.0224V70.0224ZM82.2337 63.3625L73.7076 48.5952L84.1575 42.56L85.7549 45.3273L78.45 49.5462L80.2394 52.6464L87.3895 48.5171L88.9869 51.2844L81.8369 55.4124L83.7799 58.7788L91.0861 54.56L92.6849 57.3273L82.2337 63.3625V63.3625Z" fill="black"/>
</svg>
